<svg width="26" height="34" viewBox="0 0 26 34" fill="none" xmlns="http://www.w3.org/2000/svg">
<path fill-rule="evenodd" clip-rule="evenodd" d="M14 1.85695L19 3.85697H9H7V5.85697V10.857V12.857H9H24H26V10.857V5.85697V3.85697H24.3852L14.7428 0L14 1.85695ZM9 5.85697H24V10.857H9V5.85697ZM2.03979 9.57488C3.34585 8.26882 5.11724 7.53509 6.96429 7.53509V9.52148C5.64407 9.52148 4.37792 10.0459 3.44439 10.9795C2.51085 11.913 1.9864 13.1792 1.9864 14.4994C1.9864 15.8196 2.51085 17.0857 3.44439 18.0193C4.37792 18.9528 5.64407 19.4773 6.96428 19.4773V21.4637C5.11724 21.4637 3.34585 20.7299 2.03979 19.4239C0.733735 18.1178 0 16.3464 0 14.4994C0 12.6523 0.733735 10.8809 2.03979 9.57488ZM16.1737 33.4621C18.0479 33.4642 19.8462 32.7308 21.1729 31.4232C22.4996 30.1156 23.2462 28.3409 23.2483 26.4896C23.2503 24.6383 22.5078 22.8619 21.1841 21.5513C19.959 20.3384 18.3289 19.6164 16.6072 19.5138V19.4637H6.96432V21.4637H16.34C17.6324 21.5035 18.8633 22.0288 19.7794 22.9358C20.7314 23.8783 21.2654 25.1559 21.2639 26.4874C21.2624 27.8188 20.7255 29.0952 19.7714 30.0356C18.8172 30.976 17.5239 31.5035 16.176 31.5019L16.1737 33.4621Z" fill="white"/>
</svg>
