<svg width="28" height="28" viewBox="0 0 28 28" fill="none" xmlns="http://www.w3.org/2000/svg">
<path d="M27.0323 13.0762C26.9995 16.6672 26.1081 19.4766 24.2542 21.9178C22.2635 24.5402 19.6713 26.2055 16.4995 26.8795C14.0495 27.3949 11.6651 27.1684 9.32447 26.2904C8.80494 26.0922 8.29634 25.86 7.80962 25.5824C7.66197 25.4975 7.53619 25.4861 7.37212 25.5428C5.15728 26.2848 2.93697 27.0211 0.716655 27.7518C0.618218 27.7857 0.486968 27.882 0.410405 27.8084C0.322905 27.7178 0.43228 27.5818 0.465093 27.4742C0.908062 26.1092 1.35103 24.7385 1.79947 23.3734C2.07291 22.5408 2.33541 21.7139 2.61978 20.8869C2.69634 20.6717 2.669 20.5074 2.55416 20.3092C1.99087 19.3123 1.57525 18.2475 1.27994 17.1316C0.727593 15.0359 0.667437 12.9176 1.09947 10.7992C1.56978 8.48828 2.55416 6.42656 4.069 4.64805C5.90103 2.4957 8.15962 1.07402 10.8448 0.388672C12.5565 -0.0474605 14.2846 -0.115429 16.0237 0.179102C18.2987 0.564258 20.3495 1.49883 22.1377 3.00547C23.9971 4.57441 25.3534 6.52285 26.2065 8.86211C26.6768 10.1252 27.0487 12.1926 27.0323 13.0762ZM3.74634 24.3873C5.10259 23.9342 6.39869 23.5037 7.68384 23.0676C7.85337 23.0109 7.99009 23.0223 8.13775 23.1242C8.62994 23.4641 9.16041 23.7359 9.70728 23.9738C11.4846 24.7555 13.3331 25.0387 15.2417 24.7838C17.5823 24.4723 19.6385 23.498 21.3667 21.8045C23.5432 19.6691 24.7081 17.0523 24.812 13.9598C24.9104 10.9295 23.9698 8.26738 22.0065 6.00742C20.1417 3.86074 17.801 2.63731 15.0393 2.33145C12.6385 2.06523 10.3909 2.60332 8.31275 3.89473C6.53541 5.00488 5.17369 6.51719 4.22759 8.42598C3.18306 10.5273 2.82759 12.759 3.12837 15.0982C3.35259 16.8654 3.96509 18.491 4.94947 19.9523C5.05884 20.1166 5.09166 20.2525 5.02603 20.4451C4.82369 21.0229 4.64322 21.6063 4.45181 22.184C4.22212 22.8977 3.99791 23.6113 3.74634 24.3873Z" fill="white"/>
<path d="M7.3776 10.4084C7.40494 9.06036 7.86432 8.05782 8.73385 7.25919C9.01276 6.99864 9.35729 6.88536 9.74557 6.942C9.90963 6.96466 10.0737 6.98165 10.2378 6.97032C10.544 6.95333 10.7518 7.10626 10.8557 7.3838C11.2221 8.36934 11.5776 9.35489 11.9331 10.3461C12.0534 10.6859 11.8456 10.9522 11.6706 11.1957C11.4682 11.4846 11.2221 11.7395 10.9815 11.9943C10.7354 12.2549 10.7026 12.4022 10.8721 12.7193C11.862 14.5828 13.251 16.0158 15.1378 16.8994C15.2034 16.9277 15.269 16.9674 15.3346 17.0014C15.5862 17.1203 15.8104 17.092 16.0018 16.8654C16.3518 16.4406 16.7346 16.0498 17.0573 15.6024C17.2706 15.3078 17.4182 15.2568 17.7409 15.4041C18.7034 15.8346 19.6057 16.3783 20.5245 16.9051C20.694 17.0014 20.7542 17.1486 20.7487 17.3525C20.6995 19.0234 19.7753 19.8957 18.151 20.2809C17.3635 20.4678 16.6362 20.2639 15.9143 19.992C14.3995 19.4256 12.9393 18.7572 11.7143 17.6357C10.7409 16.7408 9.88229 15.744 9.15494 14.6281C8.59713 13.7672 8.01744 12.9233 7.69479 11.9207C7.50885 11.3883 7.37213 10.8445 7.3776 10.4084Z" fill="white"/>
</svg>
