<svg width="34" height="20" viewBox="0 0 34 20" fill="none" xmlns="http://www.w3.org/2000/svg">
<path d="M32.4832 19.0753C31.3219 19.7927 26.5979 20.0062 25.4546 19.1868C24.8273 18.7377 24.2538 18.1752 23.7088 17.6404C23.3283 17.2661 22.8954 17.0844 22.5682 16.6783C22.3017 16.3456 22.1183 15.9536 21.8366 15.6264C21.3619 15.0758 20.6304 14.6076 20.0513 15.2802C19.1805 16.2913 20.1887 18.279 19.027 19.035C18.6374 19.2887 18.2445 19.3622 17.7578 19.3259L16.6797 19.3744C16.046 19.3866 15.0429 19.3921 14.3228 19.2638C13.5186 19.1211 12.8555 18.6878 12.1294 18.3696C10.7499 17.7664 9.43517 16.9443 8.43522 15.8054C5.71385 12.7042 2.05825 8.4386 0.638284 4.53923C0.34556 3.73797 -0.42508 2.15221 0.30604 1.4647C1.30047 0.75226 6.18304 0.550584 6.94403 1.65323C7.25375 2.10054 7.4486 2.75723 7.66733 3.26437C7.93938 3.89704 8.08735 4.49391 8.51288 5.05407C8.8897 5.55124 9.16818 6.05067 9.45998 6.59587C9.78763 7.20724 10.0964 7.79369 10.4949 8.35702C10.7651 8.73998 11.4796 9.50091 11.9309 9.55801C13.0329 9.69714 12.9639 7.05587 12.8821 6.41051C12.804 5.78917 12.7833 5.13021 12.804 4.4998C12.8219 3.9623 12.8711 3.205 12.5481 2.76584C12.0219 2.04978 10.8501 2.58592 10.7582 1.62377C10.9521 1.35049 10.9107 1.10803 12.2039 0.688359C13.2217 0.357973 13.8793 0.368396 14.5507 0.421421C15.9201 0.529737 17.3718 0.164002 18.693 0.601797C19.9548 1.02101 19.76 2.78986 19.7177 3.85036C19.6612 5.29835 19.7214 6.71098 19.7177 8.17982C19.7159 8.8492 19.6892 9.49955 20.5155 9.44562C21.2912 9.3944 21.3698 8.75131 21.7397 8.22015C22.2548 7.48007 22.7268 6.73002 23.2511 5.9922C23.9574 4.99561 24.1702 3.87574 24.8351 2.85467C25.0731 2.48894 25.2776 1.69084 25.6439 1.40215C25.9215 1.18416 26.4481 1.27752 26.7835 1.27752H27.5813C28.1925 1.28477 28.8156 1.29339 29.4429 1.31514C30.3468 1.34596 31.3591 1.15244 32.2557 1.27707C36.1231 1.81548 27.3947 9.9745 27.8487 11.4302C28.1631 12.4354 30.1538 13.5616 30.8725 14.3855C31.8306 15.4814 34.7675 17.6654 32.4832 19.0753Z" fill="white"/>
</svg>
